<svg width="43" height="23" viewBox="0 0 43 23" fill="none" xmlns="http://www.w3.org/2000/svg">
<path d="M1.34161 18.1626C1.14936 17.8521 0.893027 17.3561 0.734701 16.9888C-0.188863 14.838 -0.230329 12.6115 0.546219 10.4759C1.40193 8.13205 3.03795 6.34102 5.15273 5.42467C7.81033 4.27735 10.7469 4.50076 13.2952 6.01916C14.9123 6.95065 16.0583 8.38954 16.9291 10.4267C17.0384 10.688 17.1364 10.9644 17.2345 11.2029L1.34161 18.1626ZM6.64928 8.88179C4.76069 9.6959 3.78812 11.4756 3.99168 13.5582L11.9833 10.1011C10.6074 8.48042 8.8206 7.94273 6.64928 8.88179V8.88179ZM12.9785 16.4019C12.9747 16.4019 12.9747 16.4057 12.9747 16.4057L12.8089 16.2921C12.3301 17.0683 11.5875 17.7007 10.6489 18.1096C8.86206 18.8896 7.20719 18.6889 6.01598 17.6401L5.90666 17.8067C5.90666 17.8067 5.90666 17.8029 5.90289 17.8029L3.87482 20.8511C4.37995 21.2032 4.91901 21.4986 5.48446 21.7371C7.72363 22.6724 10.0156 22.6269 12.2736 21.6424C13.9059 20.9306 15.1875 19.8476 16.0621 18.4731L12.9785 16.4019ZM22.7871 0.941406V17.8824L25.4108 18.9502L23.9218 22.4414L21.0267 21.2297C20.3783 20.9457 19.9335 20.5141 19.6018 20.0256C19.2814 19.5296 19.0439 18.8442 19.0439 17.9278V0.941406H22.7871ZM29.58 13.5695C29.58 12.1269 30.2171 10.8319 31.2198 9.95338L28.5283 6.93929C26.7038 8.55993 25.5541 10.9265 25.5541 13.562C25.5503 16.2012 26.7 18.5716 28.5208 20.1922L31.2085 17.1781C30.2096 16.2958 29.58 15.0084 29.58 13.5695V13.5695ZM34.36 18.3747C33.8322 18.3747 33.3195 18.2838 32.8446 18.1247L31.5591 21.9605C32.4374 22.2559 33.3761 22.4187 34.3562 22.4187C38.6159 22.4225 42.1707 19.3857 42.9962 15.353L39.0456 14.5427C38.597 16.7351 36.6708 18.3784 34.36 18.3747V18.3747ZM34.3713 4.72038C33.3949 4.72038 32.4563 4.87941 31.578 5.17098L32.8521 9.01053C33.3309 8.8515 33.8398 8.76441 34.3675 8.76441C36.6821 8.76819 38.6121 10.4191 39.0494 12.6153L43 11.8126C42.1895 7.77233 38.6347 4.72416 34.3713 4.72038V4.72038Z" fill="white"/>
</svg>
