<svg width="73" height="24" viewBox="0 0 73 24" fill="none" xmlns="http://www.w3.org/2000/svg">
<path fill-rule="evenodd" clip-rule="evenodd" d="M73 20.6552C73 20.6552 72.8061 23.2556 69.9399 23.1902H65.9772V21.379H69.9399C70.3059 21.379 70.6109 21.3191 70.7334 21.1987C70.8549 21.0775 70.9769 20.8964 70.9769 20.6552C70.9769 20.4133 70.8554 20.1721 70.7334 20.0518C70.6109 19.9306 70.3674 19.8706 70.0014 19.8706C68.1117 19.8098 65.7332 19.9306 65.7332 17.2749C65.7332 16.0671 66.5258 14.739 68.6598 14.739H72.745V16.5502H68.9644C68.5993 16.5502 68.3549 16.5502 68.1719 16.6706C67.9889 16.8517 67.8673 17.0329 67.8673 17.3348C67.8673 17.6368 68.0503 17.8179 68.2938 17.9391C68.5383 17.9991 68.7823 18.0595 69.0873 18.0595H70.1844C71.3429 18.0595 71.9278 18.1178 72.5629 18.7237C73 19.1407 73 20.6552 73 20.6552ZM64.5742 18.7237C64.0862 18.3006 63.3542 18.0595 62.1957 18.0595H61.0986C60.7941 18.0595 60.5496 17.9986 60.3061 17.9391C60.0616 17.8179 59.8795 17.6368 59.8795 17.3348C59.8795 17.0329 59.9401 16.8517 60.1841 16.6706C60.3671 16.5502 60.6106 16.5502 60.9766 16.5502H64.7572V14.739H60.672C58.4765 14.739 57.7445 16.0671 57.7445 17.2749C57.7445 19.9302 60.1231 19.8098 62.0136 19.8706C62.3787 19.8706 62.6231 19.9306 62.7447 20.0518C62.8662 20.1721 62.9891 20.4133 62.9891 20.6552C62.9891 20.8964 62.8667 21.0775 62.7447 21.1987C62.5617 21.3191 62.3181 21.379 61.9521 21.379H57.9885V23.1902H61.9521C64.0248 23.1902 65.1838 22.3456 65.1838 20.5349C65.1838 19.6899 64.9402 19.146 64.5742 18.7237ZM56.769 21.4403H51.9527V19.7499H56.6474V18.0603H51.9527V16.4903H56.769V14.7399H49.9402V23.1906H56.769V21.4403ZM47.7447 15.1626C47.0737 14.8003 46.2811 14.7395 45.2446 14.7395H40.5499V23.1902H42.6225V20.1118H44.818C45.5491 20.1118 45.9766 20.1726 46.2816 20.4741C46.6476 20.8964 46.6476 21.621 46.6476 22.1645V23.1902H48.6592V21.5602C48.6592 20.7756 48.5986 20.4133 48.3546 19.991C48.1716 19.749 47.8065 19.4475 47.3185 19.2663C47.8667 19.0861 48.7821 18.3614 48.7821 17.0329C48.7816 16.0676 48.4156 15.5241 47.7447 15.1626ZM36.1592 14.7395H29.6345L27.0125 17.5164L24.5124 14.7395H16.2806V23.1902H24.3908L27.0129 20.4133L29.513 23.1902H33.4766V20.3537H36.0377C37.8058 20.3537 39.5747 19.8706 39.5747 17.5164C39.5743 15.2226 37.7448 14.7395 36.1592 14.7395ZM46.0981 18.2411C45.7936 18.3614 45.4886 18.3614 45.1226 18.3614L42.6225 18.4222V16.4898H45.1226C45.4886 16.4898 45.8546 16.4898 46.0981 16.671C46.3426 16.7922 46.5247 17.0333 46.5247 17.3956C46.5247 17.758 46.3426 18.0599 46.0981 18.2411ZM36.1592 18.6633H33.4762V16.4898H36.1592C36.8912 16.4898 37.3788 16.7922 37.3788 17.5164C37.3788 18.2411 36.8908 18.6633 36.1592 18.6633ZM28.293 18.9648L31.4636 15.6453V22.4664L28.293 18.9648ZM23.3538 21.4403H18.2927V19.7499H22.8048V18.0603H18.2927V16.4903H23.4148L25.6709 18.9653L23.3538 21.4403ZM67.5009 8.64256H64.5742L60.7326 2.30409V8.64256H56.5869L55.7934 6.77099H51.5253L50.7327 8.64256H48.3542C47.3787 8.64256 46.0981 8.40101 45.367 7.67636C44.696 6.95215 44.33 5.98639 44.33 4.47715C44.33 3.20946 44.513 2.06254 45.4271 1.15716C46.0367 0.492905 47.1347 0.191406 48.5368 0.191406H50.4878V2.00258H48.5368C47.8057 2.00258 47.3782 2.12336 46.9517 2.48569C46.5857 2.84801 46.4027 3.51183 46.4027 4.4172C46.4027 5.32257 46.5857 5.98683 46.9517 6.40954C47.2562 6.71104 47.8057 6.83182 48.3538 6.83182H49.2687L52.1954 0.191843H55.2445L58.6591 8.1599V0.191406H61.8302L65.4278 6.04678V0.191406H67.5004L67.5009 8.64256ZM43.2935 0.191406H41.2208V8.64256H43.2935V0.191406ZM38.9639 0.55373C38.2929 0.191407 37.5618 0.191406 36.5252 0.191406H31.8296V8.64256H33.8417V5.56368H36.0368C36.7688 5.56368 37.2568 5.62407 37.5613 5.92601C37.9273 6.34872 37.8659 7.07337 37.8659 7.55603V8.64256H39.9385V6.95215C39.9385 6.22794 39.878 5.86562 39.5734 5.44291C39.3904 5.20136 39.0244 4.89942 38.5979 4.7187C39.146 4.47715 40.0614 3.81333 40.0614 2.48525C40.0619 1.51949 39.6344 0.976004 38.9639 0.55373ZM30.3661 6.8922H25.6099V5.2018H30.3051V3.45144H25.6099V1.9422H30.3661V0.191843H23.5368V8.64299H30.3661V6.8922ZM22.0123 0.191406H18.6587L16.1586 5.92601L13.4755 0.191406H10.1829V8.15946L6.70726 0.191406H3.65862L0 8.64256H2.19509L2.98763 6.77099H7.25581L8.04835 8.64256H12.195V2.00258L15.1826 8.64256H16.9507L19.9388 2.00258V8.64256H22.0119L22.0123 0.191406ZM55.0623 4.96025L53.6594 1.64026L52.2573 4.96025H55.0623ZM37.3788 3.6326C37.0742 3.81376 36.7692 3.81377 36.3422 3.81377H33.8417V1.94264H36.3418C36.7078 1.94264 37.1339 1.94263 37.3783 2.06341C37.6219 2.24457 37.7443 2.48612 37.7443 2.84801C37.7443 3.20989 37.6223 3.51139 37.3788 3.6326ZM3.71918 4.96025L5.12172 1.64026L6.52426 4.96025H3.71918Z" fill="white"/>
</svg>
