<svg width="36" height="23" viewBox="0 0 36 23" fill="none" xmlns="http://www.w3.org/2000/svg">
<path d="M23.0164 20.3392H13.3921V3.04297H23.0166L23.0164 20.3392Z" fill="#FF5F00"/>
<path d="M36.0003 11.6914C36.0003 17.7666 31.0762 22.6914 25.0017 22.6914C22.5355 22.695 20.1402 21.8664 18.2034 20.3395C20.7622 18.3254 22.405 15.2001 22.405 11.6914C22.405 8.1827 20.7622 5.05746 18.2034 3.04331C20.1401 1.5165 22.5354 0.687839 25.0016 0.691418C31.076 0.691418 36.0001 5.61621 36.0001 11.6914" fill="#F79E1B"/>
<path d="M14.0024 11.6914C14.0024 8.18288 15.6452 5.05746 18.2033 3.04331C16.267 1.51645 13.872 0.687775 11.406 0.691418C5.33155 0.691418 0.407471 5.61621 0.407471 11.6914C0.407471 17.7666 5.33155 22.6914 11.406 22.6914C13.872 22.6951 16.2671 21.8664 18.2035 20.3395C15.6456 18.3257 14.0024 15.2001 14.0024 11.6914Z" fill="#EB001B"/>
</svg>
