<svg width="52" height="17" viewBox="0 0 52 17" fill="none" xmlns="http://www.w3.org/2000/svg">
<path d="M18.6182 16.433L21.2335 1.09037H25.4151L22.799 16.433H18.6182ZM37.888 1.42695C36.688 0.992243 35.4203 0.774113 34.144 0.782716C30.0171 0.782716 27.1099 2.86105 27.0848 5.84034C27.0621 8.04232 29.1607 9.27049 30.7451 10.0032C32.371 10.7547 32.9174 11.2337 32.9095 11.9046C32.8994 12.9316 31.6109 13.4005 30.4109 13.4005C28.7389 13.4005 27.8511 13.1657 26.4789 12.5966L25.9412 12.3531L25.3548 15.7833C26.3302 16.2107 28.1345 16.5818 30.007 16.6005C34.3976 16.6005 37.2477 14.5465 37.2806 11.3652C37.2963 9.62195 36.1847 8.29513 33.7737 7.20158C32.3138 6.49707 31.4199 6.01957 31.4293 5.30175C31.4293 4.66534 32.1862 3.98435 33.8215 3.98435C34.8929 3.96037 35.9575 4.16033 36.9472 4.57144L37.3213 4.74833L37.888 1.42695V1.42695ZM48.6311 1.09037H45.4138C44.4173 1.09037 43.6713 1.36279 43.2337 2.35693L37.0497 16.3547H41.4513C41.4513 16.3547 42.1558 14.4933 42.3179 14.0846L47.5915 14.0909C47.7144 14.6201 48.0925 16.3547 48.0925 16.3547H52.0002L48.6311 1.09037ZM43.5155 10.9535C43.8607 10.0705 45.1798 6.67006 45.1798 6.67006C45.1547 6.71077 45.5226 5.78239 45.7332 5.20704L46.0157 6.52841C46.0157 6.52841 46.8158 10.1864 46.9825 10.9535H43.5155ZM15.0698 1.09037L10.9899 11.5163L10.5554 9.39732C9.79613 6.95502 7.42976 4.30921 4.78394 2.98473L8.51472 16.3547L12.9234 16.35L19.4839 1.09037H15.0494" fill="white"/>
<path d="M7.00014 1.09005H0.293998L0.23999 1.40863C5.47998 2.67753 8.94692 5.74294 10.3865 9.42518L8.92187 2.38008C8.66903 1.41021 7.93637 1.12057 7.02911 1.08691" fill="#E6A540"/>
</svg>
